<?xml version="1.0" encoding="UTF-8" standalone="no"?>
<!-- Created with Inkscape (http://www.inkscape.org/) -->

<svg
   xmlns:dc="http://purl.org/dc/elements/1.1/"
   xmlns:cc="http://creativecommons.org/ns#"
   xmlns:rdf="http://www.w3.org/1999/02/22-rdf-syntax-ns#"
   xmlns:svg="http://www.w3.org/2000/svg"
   xmlns="http://www.w3.org/2000/svg"
   xmlns:sodipodi="http://sodipodi.sourceforge.net/DTD/sodipodi-0.dtd"
   xmlns:inkscape="http://www.inkscape.org/namespaces/inkscape"
   width="9.8999987"
   height="1.0000001"
   id="svg5717"
   version="1.1"
   inkscape:version="0.48.4 r9939"
   sodipodi:docname="veza2sm.svg">
  <defs
     id="defs5719">
    <marker
       inkscape:stockid="Arrow1Mstart"
       orient="auto"
       refY="0"
       refX="0"
       id="Arrow1Mstart"
       style="overflow:visible">
      <path
         id="path4334"
         d="M 0,0 5,-5 -12.5,0 5,5 0,0 z"
         style="fill-rule:evenodd;stroke:#000000;stroke-width:1pt"
         transform="matrix(0.4,0,0,0.4,4,0)"
         inkscape:connector-curvature="0" />
    </marker>
    <marker
       inkscape:stockid="Arrow2Mend"
       orient="auto"
       refY="0"
       refX="0"
       id="Arrow2Mend"
       style="overflow:visible">
      <path
         id="path4355"
         style="fill-rule:evenodd;stroke-width:0.625;stroke-linejoin:round"
         d="M 8.7185878,4.0337352 -2.2072895,0.01601326 8.7185884,-4.0017078 c -1.7454984,2.3720609 -1.7354408,5.6174519 -6e-7,8.035443 z"
         transform="scale(-0.6,-0.6)"
         inkscape:connector-curvature="0" />
    </marker>
  </defs>
  <sodipodi:namedview
     id="base"
     pagecolor="#ffffff"
     bordercolor="#666666"
     borderopacity="1.0"
     inkscape:pageopacity="0.0"
     inkscape:pageshadow="2"
     inkscape:zoom="22.627417"
     inkscape:cx="6.0935561"
     inkscape:cy="0.62862735"
     inkscape:document-units="px"
     inkscape:current-layer="layer1"
     showgrid="true"
     fit-margin-top="0"
     fit-margin-left="0"
     fit-margin-right="0"
     fit-margin-bottom="0"
     inkscape:window-width="1280"
     inkscape:window-height="977"
     inkscape:window-x="0"
     inkscape:window-y="0"
     inkscape:window-maximized="1"
     inkscape:snap-bbox="true">
    <inkscape:grid
       type="xygrid"
       id="grid6094"
       empspacing="5"
       visible="true"
       enabled="true"
       snapvisiblegridlinesonly="true"
       originx="13.5px"
       originy="-19.999995px"
       spacingx="0.9px"
       dotted="false" />
  </sodipodi:namedview>
  <metadata
     id="metadata5722">
    <rdf:RDF>
      <cc:Work
         rdf:about="">
        <dc:format>image/svg+xml</dc:format>
        <dc:type
           rdf:resource="http://purl.org/dc/dcmitype/StillImage" />
        <dc:title></dc:title>
      </cc:Work>
    </rdf:RDF>
  </metadata>
  <g
     inkscape:label="Layer 1"
     inkscape:groupmode="layer"
     id="layer1"
     transform="translate(-368.42649,-449.81452)">
    <path
       transform="matrix(0.31191347,0,0,0.36747003,366.96656,448.17127)"
       sodipodi:type="arc"
       style="fill:#000000;fill-opacity:1;stroke:#000000;stroke-width:1;stroke-miterlimit:4;stroke-opacity:1;stroke-dasharray:none"
       id="path8426-3"
       sodipodi:cx="6.1232572"
       sodipodi:cy="5.8324432"
       sodipodi:rx="0.89999998"
       sodipodi:ry="0.89999998"
       d="m 7.0232571,5.8324432 c 0,0.4970563 -0.4029437,0.9 -0.8999999,0.9 -0.4970563,0 -0.9,-0.4029437 -0.9,-0.9 0,-0.4970562 0.4029437,-0.8999999 0.9,-0.8999999 0.4970562,0 0.8999999,0.4029437 0.8999999,0.8999999 z" />
    <path
       transform="matrix(0.31191347,0,0,0.36747003,371.46656,448.17127)"
       sodipodi:type="arc"
       style="fill:#000000;fill-opacity:1;stroke:#000000;stroke-width:1;stroke-miterlimit:4;stroke-opacity:1;stroke-dasharray:none"
       id="path8426-3-4"
       sodipodi:cx="6.1232572"
       sodipodi:cy="5.8324432"
       sodipodi:rx="0.89999998"
       sodipodi:ry="0.89999998"
       d="m 7.0232571,5.8324432 c 0,0.4970563 -0.4029437,0.9 -0.8999999,0.9 -0.4970563,0 -0.9,-0.4029437 -0.9,-0.9 0,-0.4970562 0.4029437,-0.8999999 0.9,-0.8999999 0.4970562,0 0.8999999,0.4029437 0.8999999,0.8999999 z" />
    <path
       transform="matrix(0.31191347,0,0,0.36747003,375.96656,448.17127)"
       sodipodi:type="arc"
       style="fill:#000000;fill-opacity:1;stroke:#000000;stroke-width:1;stroke-miterlimit:4;stroke-opacity:1;stroke-dasharray:none"
       id="path8426-3-7"
       sodipodi:cx="6.1232572"
       sodipodi:cy="5.8324432"
       sodipodi:rx="0.89999998"
       sodipodi:ry="0.89999998"
       d="m 7.0232571,5.8324432 c 0,0.4970563 -0.4029437,0.9 -0.8999999,0.9 -0.4970563,0 -0.9,-0.4029437 -0.9,-0.9 0,-0.4970562 0.4029437,-0.8999999 0.9,-0.8999999 0.4970562,0 0.8999999,0.4029437 0.8999999,0.8999999 z" />
  </g>
</svg>
